<?xml version="1.0" encoding="utf-8"?>
<!-- created with diagram-js -->
<!DOCTYPE svg PUBLIC "-//W3C//DTD SVG 1.1//EN" "http://www.w3.org/Graphics/SVG/1.1/DTD/svg11.dtd">
<svg xmlns="http://www.w3.org/2000/svg" xmlns:xlink="http://www.w3.org/1999/xlink" width="402" height="160" viewBox="434 231 402 160" version="1.1"><defs><marker id="-white-black-86fvhivs5n2arx36z0jri6eq3" viewBox="0 0 20 20" refX="11" refY="10" markerWidth="10" markerHeight="10" orient="auto"><path d="M 1 5 L 11 10 L 1 15 Z" style="stroke-width: 1px; stroke-linecap: round; stroke-dasharray: 10000px, 1px;"/></marker></defs><g class="djs-group"><g class="djs-element djs-connection" data-element-id="Link_008wy3y" style="display: block;"><g class="djs-visual"><path d="m  515,300L515,353 L600,353 " style="fill: none; stroke-width: 2px; stroke: black; stroke-linejoin: round; marker-end: url('#-white-black-86fvhivs5n2arx36z0jri6eq3');"/></g><polyline points="515,300 515,353 600,353 " style="fill: none; stroke-opacity: 0; stroke: white; stroke-width: 15px;" class="djs-hit djs-hit-stroke"/><rect x="509" y="294" rx="3" width="97" height="65" style="fill: none;" class="djs-outline"/></g></g><g class="djs-group"><g class="djs-element djs-connection" data-element-id="Link_13ddqpm" style="display: block;"><g class="djs-visual"><path d="m  590,270L680,270 " style="fill: none; stroke-width: 2px; stroke: black; stroke-linejoin: round; marker-end: url('#-white-black-86fvhivs5n2arx36z0jri6eq3');"/></g><polyline points="590,270 680,270 " style="fill: none; stroke-opacity: 0; stroke: white; stroke-width: 15px;" class="djs-hit djs-hit-stroke"/><rect x="584" y="264" rx="3" width="102" height="12" style="fill: none;" class="djs-outline"/></g></g><g class="djs-group"><g class="djs-element djs-shape" data-element-id="Object_1j4ij8b" transform="matrix(1, 0, 0, 1, 440, 240)" style="display: block;"><g class="djs-visual"><rect x="0" y="0" width="150" height="60" rx="0" ry="0" style="stroke: black; stroke-width: 2px; fill: white; fill-opacity: 0.35;"/><polyline points="0,30 150,30 " style="fill: none; stroke: black; stroke-width: 2px;"/><text style="font-family: IBM Plex, sans-serif; font-size: 16px; font-weight: normal;" lineHeight="1.2" class="djs-label"><tspan x="5.758331298828125" y="19.8">1:ProcessSnapshot</tspan></text><text style="font-family: IBM Plex, sans-serif; font-size: 16px; font-weight: normal;" lineHeight="1.2" class="djs-label"><tspan x="15.125" y="49.8">name="Process"</tspan></text></g><rect style="fill: none; stroke-opacity: 0; stroke: white; stroke-width: 15px;" class="djs-hit djs-hit-all" x="0" y="0" width="150" height="60"/><rect x="-6" y="-6" rx="3" width="162" height="72" style="fill: none;" class="djs-outline"/></g></g><g class="djs-group"><g class="djs-element djs-shape" data-element-id="Object_1u57j0e" transform="matrix(1, 0, 0, 1, 680, 237)" style="display: block;"><g class="djs-visual"><rect x="0" y="0" width="150" height="65" rx="0" ry="0" style="stroke: black; stroke-width: 2px; fill: white; fill-opacity: 0.35;"/><polyline points="0,30 150,30 " style="fill: none; stroke: black; stroke-width: 2px;"/><text style="font-family: IBM Plex, sans-serif; font-size: 16px; font-weight: normal;" lineHeight="1.2" class="djs-label"><tspan x="20.700000762939453" y="19.8">1:ProcessState</tspan></text><text style="font-family: IBM Plex, sans-serif; font-size: 16px; font-weight: normal;" lineHeight="1.2" class="djs-label"><tspan x="40.38333511352539" y="52.3">[Running]</tspan></text></g><rect style="fill: none; stroke-opacity: 0; stroke: white; stroke-width: 15px;" class="djs-hit djs-hit-all" x="0" y="0" width="150" height="65"/><rect x="-6" y="-6" rx="3" width="162" height="77" style="fill: none;" class="djs-outline"/></g></g><g class="djs-group"><g class="djs-element djs-shape" data-element-id="Object_159y2ve" transform="matrix(1, 0, 0, 1, 600, 320)" style="display: block;"><g class="djs-visual"><rect x="0" y="0" width="230" height="65" rx="0" ry="0" style="stroke: black; stroke-width: 2px; fill: white; fill-opacity: 0.35;"/><polyline points="0,30 230,30 " style="fill: none; stroke: black; stroke-width: 2px;"/><text style="font-family: IBM Plex, sans-serif; font-size: 16px; font-weight: normal;" lineHeight="1.2" class="djs-label"><tspan x="86.625" y="19.8">1:Token</tspan></text><text style="font-family: IBM Plex, sans-serif; font-size: 16px; font-weight: normal;" lineHeight="1.2" class="djs-label"><tspan x="60.92499923706055" y="52.3">elementID="A"</tspan></text></g><rect style="fill: none; stroke-opacity: 0; stroke: white; stroke-width: 15px;" class="djs-hit djs-hit-all" x="0" y="0" width="230" height="65"/><rect x="-6" y="-6" rx="3" width="242" height="77" style="fill: none;" class="djs-outline"/></g></g><g class="djs-group"><g class="djs-element djs-shape" data-element-id="Link_13ddqpm_label" transform="matrix(1, 0, 0, 1, 640, 247)" style="display: block;"><g class="djs-visual"><text style="font-family: IBM Plex, sans-serif; font-size: 15px; font-weight: normal; fill: black;" lineHeight="1.2" class="djs-label"><tspan x="0" y="13.5">:state</tspan></text></g><rect style="fill: none; stroke-opacity: 0; stroke: white; stroke-width: 15px;" class="djs-hit djs-hit-all" x="0" y="0" width="39" height="18"/><rect x="-6" y="-6" rx="3" width="51" height="30" style="fill: none;" class="djs-outline"/></g></g><g class="djs-group"><g class="djs-element djs-shape" data-element-id="Link_008wy3y_label" transform="matrix(1, 0, 0, 1, 548, 324)" style="display: block;"><g class="djs-visual"><text style="font-family: IBM Plex, sans-serif; font-size: 15px; font-weight: normal; fill: black;" lineHeight="1.2" class="djs-label"><tspan x="0" y="13.5">:tokens</tspan></text></g><rect style="fill: none; stroke-opacity: 0; stroke: white; stroke-width: 15px;" class="djs-hit djs-hit-all" x="0" y="0" width="50" height="18"/><rect x="-6" y="-6" rx="3" width="62" height="30" style="fill: none;" class="djs-outline"/></g></g></svg>